# xmcd
#
# Track frame offsets:
#	150
#	22176
#	37596
#	57068
#	82785
#	103004
#	128178
#	153022
#	176286
#	203445
#	216179
#	230249
#	262004
#	277709
#	299016
#
# Disc length: 4468 seconds
#
# Revision: 0
# Processed by: cddbd v1.5.2PL0 Copyright (c) Steve Scherf et al.
# Submitted via: dBpowerAMP V4.0
#
DISCID=c411720f
DTITLE=Phil Collins - Serious Hits - Live!
DYEAR=1900
DGENRE=
TTITLE0=01 Something Happened On The Way To Heaven
TTITLE1=02 Against All Odds (Take A Look To Me Now)
TTITLE2=03 Who Said I Would
TTITLE3=04 One More Night
TTITLE4=05 Don't Lose The Number
TTITLE5=06 Do You Remembre
TTITLE6=07 Another Day In Paradise
TTITLE7=08 Seperate Lives
TTITLE8=09 In The Air Tonight
TTITLE9=10 You Can't Hurry Love
TTITLE10=11 Two Hearts
TTITLE11=12 Sussudio
TTITLE12=13 A Groovy Kind Of Love
TTITLE13=14 Easy Lover
TTITLE14=15 Take Me Home
EXTD=
EXTT0=
EXTT1=
EXTT2=
EXTT3=
EXTT4=
EXTT5=
EXTT6=
EXTT7=
EXTT8=
EXTT9=
EXTT10=
EXTT11=
EXTT12=
EXTT13=
EXTT14=
PLAYORDER=
